<svg width="168" height="20" viewBox="0 0 168 20" fill="none" xmlns="http://www.w3.org/2000/svg">
<path d="M3.96307 18H0.588068L6.73295 0.545454H10.6364L16.7898 18H13.4148L8.75284 4.125H8.61648L3.96307 18ZM4.07386 11.1562H13.2784V13.696H4.07386V11.1562ZM33.4325 0.545454V18H30.62L22.3956 6.1108H22.2507V18H19.0888V0.545454H21.9183L30.1342 12.4432H30.2876V0.545454H33.4325ZM40.0398 0.545454V18H36.8778V0.545454H40.0398ZM43.4638 0.545454H47.3331L52.5149 13.1932H52.7195L57.9013 0.545454H61.7706V18H58.7365V6.00852H58.5746L53.7507 17.9489H51.4837L46.6598 5.98295H46.4979V18H43.4638V0.545454ZM65.2138 18V0.545454H76.5661V3.19602H68.3757V7.93466H75.978V10.5852H68.3757V15.3494H76.6342V18H65.2138ZM92.2479 12.1364H95.1115L96.8075 14.3352L98.0178 15.767L100.924 19.5H97.8558L95.8786 16.9943L95.0348 15.8011L92.2479 12.1364ZM101.342 9.27273C101.342 11.1534 100.989 12.7642 100.285 14.1051C99.5859 15.4403 98.6314 16.4631 97.4212 17.1733C96.2166 17.8835 94.8501 18.2386 93.3217 18.2386C91.7933 18.2386 90.424 17.8835 89.2138 17.1733C88.0092 16.4574 87.0547 15.4318 86.3501 14.0966C85.6513 12.7557 85.3018 11.1477 85.3018 9.27273C85.3018 7.39205 85.6513 5.78409 86.3501 4.44886C87.0547 3.10795 88.0092 2.08239 89.2138 1.37216C90.424 0.661931 91.7933 0.306818 93.3217 0.306818C94.8501 0.306818 96.2166 0.661931 97.4212 1.37216C98.6314 2.08239 99.5859 3.10795 100.285 4.44886C100.989 5.78409 101.342 7.39205 101.342 9.27273ZM98.1626 9.27273C98.1626 7.94886 97.9553 6.83239 97.5405 5.92329C97.1314 5.00852 96.5632 4.31818 95.8359 3.85227C95.1087 3.38068 94.2706 3.14489 93.3217 3.14489C92.3729 3.14489 91.5348 3.38068 90.8075 3.85227C90.0803 4.31818 89.5092 5.00852 89.0945 5.92329C88.6854 6.83239 88.4808 7.94886 88.4808 9.27273C88.4808 10.5966 88.6854 11.7159 89.0945 12.6307C89.5092 13.5398 90.0803 14.2301 90.8075 14.7017C91.5348 15.1676 92.3729 15.4006 93.3217 15.4006C94.2706 15.4006 95.1087 15.1676 95.8359 14.7017C96.5632 14.2301 97.1314 13.5398 97.5405 12.6307C97.9553 11.7159 98.1626 10.5966 98.1626 9.27273ZM112.562 12.4943V4.90909H115.647V18H112.656V15.6733H112.519C112.224 16.4062 111.738 17.0057 111.062 17.4716C110.391 17.9375 109.565 18.1705 108.582 18.1705C107.724 18.1705 106.965 17.9801 106.306 17.5994C105.653 17.2131 105.141 16.6534 104.772 15.9205C104.403 15.1818 104.218 14.2898 104.218 13.2443V4.90909H107.303V12.767C107.303 13.5966 107.531 14.2557 107.985 14.7443C108.44 15.233 109.036 15.4773 109.775 15.4773C110.229 15.4773 110.67 15.3665 111.096 15.1449C111.522 14.9233 111.871 14.5938 112.144 14.1562C112.423 13.7131 112.562 13.1591 112.562 12.4943ZM124.53 18.2557C123.251 18.2557 122.143 17.9744 121.206 17.4119C120.268 16.8494 119.541 16.0625 119.024 15.0511C118.513 14.0398 118.257 12.858 118.257 11.5057C118.257 10.1534 118.513 8.96875 119.024 7.9517C119.541 6.93466 120.268 6.14489 121.206 5.58239C122.143 5.01989 123.251 4.73864 124.53 4.73864C125.808 4.73864 126.916 5.01989 127.854 5.58239C128.791 6.14489 129.516 6.93466 130.027 7.9517C130.544 8.96875 130.803 10.1534 130.803 11.5057C130.803 12.858 130.544 14.0398 130.027 15.0511C129.516 16.0625 128.791 16.8494 127.854 17.4119C126.916 17.9744 125.808 18.2557 124.53 18.2557ZM124.547 15.7841C125.24 15.7841 125.82 15.5937 126.286 15.2131C126.751 14.8267 127.098 14.3097 127.325 13.6619C127.558 13.0142 127.675 12.2926 127.675 11.4972C127.675 10.696 127.558 9.97159 127.325 9.32386C127.098 8.67045 126.751 8.15057 126.286 7.7642C125.82 7.37784 125.24 7.18466 124.547 7.18466C123.837 7.18466 123.246 7.37784 122.774 7.7642C122.308 8.15057 121.959 8.67045 121.726 9.32386C121.499 9.97159 121.385 10.696 121.385 11.4972C121.385 12.2926 121.499 13.0142 121.726 13.6619C121.959 14.3097 122.308 14.8267 122.774 15.2131C123.246 15.5937 123.837 15.7841 124.547 15.7841ZM139.958 4.90909V7.29545H132.433V4.90909H139.958ZM134.29 1.77273H137.376V14.0625C137.376 14.4773 137.438 14.7955 137.563 15.017C137.694 15.233 137.864 15.3807 138.075 15.4602C138.285 15.5398 138.518 15.5795 138.773 15.5795C138.967 15.5795 139.143 15.5653 139.302 15.5369C139.467 15.5085 139.592 15.483 139.677 15.4602L140.197 17.8722C140.032 17.929 139.796 17.9915 139.489 18.0597C139.188 18.1278 138.819 18.1676 138.381 18.179C137.609 18.2017 136.913 18.0852 136.293 17.8295C135.674 17.5682 135.183 17.1648 134.819 16.6193C134.461 16.0739 134.285 15.392 134.29 14.5739V1.77273ZM148.193 18.2557C146.881 18.2557 145.747 17.983 144.793 17.4375C143.844 16.8864 143.114 16.108 142.602 15.1023C142.091 14.0909 141.835 12.9006 141.835 11.5312C141.835 10.1847 142.091 9.00284 142.602 7.9858C143.119 6.96307 143.841 6.16761 144.767 5.59943C145.693 5.02557 146.781 4.73864 148.031 4.73864C148.838 4.73864 149.599 4.86932 150.315 5.13068C151.037 5.38636 151.673 5.78409 152.224 6.32386C152.781 6.86364 153.219 7.55114 153.537 8.38636C153.855 9.21591 154.014 10.2045 154.014 11.3523V12.2983H143.284V10.2188H151.057C151.051 9.62784 150.923 9.10227 150.673 8.64205C150.423 8.17614 150.074 7.80966 149.625 7.54261C149.182 7.27557 148.665 7.14205 148.074 7.14205C147.443 7.14205 146.889 7.29545 146.412 7.60227C145.935 7.90341 145.563 8.30114 145.295 8.79545C145.034 9.28409 144.901 9.82102 144.895 10.4062V12.2216C144.895 12.983 145.034 13.6364 145.312 14.1818C145.591 14.7216 145.98 15.1364 146.48 15.4261C146.98 15.7102 147.565 15.8523 148.236 15.8523C148.685 15.8523 149.091 15.7898 149.455 15.6648C149.818 15.5341 150.134 15.3438 150.401 15.0938C150.668 14.8438 150.869 14.5341 151.006 14.1648L153.886 14.4886C153.705 15.25 153.358 15.9148 152.847 16.483C152.341 17.0455 151.693 17.483 150.903 17.7955C150.114 18.1023 149.21 18.2557 148.193 18.2557ZM166.971 8.36932L164.158 8.67614C164.079 8.39205 163.94 8.125 163.741 7.875C163.548 7.625 163.286 7.4233 162.957 7.26989C162.627 7.11648 162.224 7.03977 161.746 7.03977C161.104 7.03977 160.565 7.17898 160.127 7.45739C159.695 7.7358 159.482 8.09659 159.488 8.53977C159.482 8.92045 159.621 9.23011 159.906 9.46875C160.195 9.70739 160.673 9.90341 161.337 10.0568L163.57 10.5341C164.809 10.8011 165.729 11.2244 166.332 11.804C166.94 12.3835 167.246 13.142 167.252 14.0795C167.246 14.9034 167.005 15.6307 166.528 16.2614C166.056 16.8864 165.4 17.375 164.559 17.7273C163.718 18.0795 162.752 18.2557 161.661 18.2557C160.059 18.2557 158.769 17.9205 157.792 17.25C156.815 16.5739 156.232 15.6335 156.045 14.429L159.053 14.1392C159.19 14.7301 159.479 15.1761 159.923 15.4773C160.366 15.7784 160.942 15.929 161.653 15.929C162.386 15.929 162.974 15.7784 163.417 15.4773C163.866 15.1761 164.09 14.804 164.09 14.3608C164.09 13.9858 163.945 13.6761 163.656 13.4318C163.371 13.1875 162.928 13 162.326 12.8693L160.093 12.4006C158.837 12.1392 157.908 11.6989 157.306 11.0795C156.704 10.4545 156.406 9.66477 156.411 8.71023C156.406 7.90341 156.624 7.20455 157.067 6.61364C157.516 6.01705 158.138 5.55682 158.934 5.23295C159.735 4.90341 160.658 4.73864 161.704 4.73864C163.238 4.73864 164.445 5.06534 165.326 5.71875C166.212 6.37216 166.761 7.25568 166.971 8.36932Z" fill="black"/>
</svg>
