<svg width="96" height="13" viewBox="0 0 96 13" fill="none" xmlns="http://www.w3.org/2000/svg">
<path d="M3.39773 12H0.375L4.30114 0.363636H8.04545L11.9716 12H8.94886L6.21591 3.29545H6.125L3.39773 12ZM2.99432 7.42045H9.3125V9.55682H2.99432V7.42045ZM23.1278 0.363636V12H20.7415L16.1108 5.28409H16.0369V12H13.2244V0.363636H15.6449L20.2244 7.06818H20.321V0.363636H23.1278ZM27.7088 0.363636V12H24.8963V0.363636H27.7088ZM29.4744 0.363636H32.9574L35.9119 7.56818H36.0483L39.0028 0.363636H42.4858V12H39.7472V4.85227H39.6506L36.8551 11.9261H35.1051L32.3097 4.8125H32.2131V12H29.4744V0.363636ZM44.2401 12V0.363636H52.3537V2.64773H47.0526V5.03409H51.9389V7.32386H47.0526V9.71591H52.3537V12H44.2401ZM62.0014 7.81818H64.2741L65.2401 9.05114L66.5071 10.5057L68.456 12.9091H65.9105L64.5469 11.2784L63.7401 10.1193L62.0014 7.81818ZM68.5355 6.18182C68.5355 7.46212 68.2893 8.54735 67.7969 9.4375C67.3045 10.3277 66.6378 11.0038 65.7969 11.4659C64.9598 11.928 64.0204 12.1591 62.9787 12.1591C61.9332 12.1591 60.992 11.9261 60.1548 11.4602C59.3177 10.9943 58.6529 10.3182 58.1605 9.43182C57.6719 8.54167 57.4276 7.45833 57.4276 6.18182C57.4276 4.90152 57.6719 3.81629 58.1605 2.92614C58.6529 2.03598 59.3177 1.35985 60.1548 0.897727C60.992 0.435606 61.9332 0.204545 62.9787 0.204545C64.0204 0.204545 64.9598 0.435606 65.7969 0.897727C66.6378 1.35985 67.3045 2.03598 67.7969 2.92614C68.2893 3.81629 68.5355 4.90152 68.5355 6.18182ZM65.6605 6.18182C65.6605 5.42424 65.5526 4.78409 65.3366 4.26136C65.1245 3.73864 64.8177 3.3428 64.4162 3.07386C64.0185 2.80492 63.5393 2.67045 62.9787 2.67045C62.4219 2.67045 61.9427 2.80492 61.5412 3.07386C61.1397 3.3428 60.831 3.73864 60.6151 4.26136C60.4029 4.78409 60.2969 5.42424 60.2969 6.18182C60.2969 6.93939 60.4029 7.57955 60.6151 8.10227C60.831 8.625 61.1397 9.02083 61.5412 9.28977C61.9427 9.55871 62.4219 9.69318 62.9787 9.69318C63.5393 9.69318 64.0185 9.55871 64.4162 9.28977C64.8177 9.02083 65.1245 8.625 65.3366 8.10227C65.5526 7.57955 65.6605 6.93939 65.6605 6.18182ZM77.233 0.363636H80.0398V7.86932C80.0398 8.73674 79.8333 9.49242 79.4205 10.1364C79.0076 10.7765 78.4318 11.2727 77.6932 11.625C76.9545 11.9735 76.0966 12.1477 75.1193 12.1477C74.1307 12.1477 73.267 11.9735 72.5284 11.625C71.7898 11.2727 71.2159 10.7765 70.8068 10.1364C70.3977 9.49242 70.1932 8.73674 70.1932 7.86932V0.363636H73.0057V7.625C73.0057 8.02652 73.0928 8.38447 73.267 8.69886C73.4451 9.01326 73.6932 9.25947 74.0114 9.4375C74.3295 9.61553 74.6989 9.70455 75.1193 9.70455C75.5398 9.70455 75.9072 9.61553 76.2216 9.4375C76.5398 9.25947 76.7879 9.01326 76.9659 8.69886C77.1439 8.38447 77.233 8.02652 77.233 7.625V0.363636ZM84.6151 0.363636V12H81.8026V0.363636H84.6151ZM86.3409 12V10.3977L91.9943 2.64773H86.3466V0.363636H95.5511V1.96591L89.8977 9.71591H95.5455V12H86.3409Z" fill="white"/>
</svg>
